<svg xmlns="http://www.w3.org/2000/svg" xmlns:xlink="http://www.w3.org/1999/xlink" width="266.866" height="68.283" viewBox="0 0 266.866 68.283"><defs><clipPath id="a"><rect width="266.866" height="68.284" fill="none"/></clipPath></defs><g transform="translate(0 0)" clip-path="url(#a)"><path d="M81.508,34.157c0,5.59.392,11.2-.089,16.765-.828,9.587-8.724,16.578-20.14,17-13.576.5-27.23.492-40.8-.112C8.485,67.278.95,60.175.342,48.953A271.633,271.633,0,0,1,.609,17.346C1.218,7.62,9.353.771,20.994.35c13.577-.492,27.221-.46,40.8.059C72.483.819,80.486,7.855,81.356,16.964c.543,5.7.1,11.458.1,17.191l.052,0M40.863,61.894l0-.018c5.822,0,11.647.116,17.464-.026,9.691-.237,15.537-5.04,15.7-13.142q.3-14.628-.006-29.263C73.85,11.506,67.9,6.592,58.406,6.471q-17.46-.224-34.925,0c-9.407.115-15.4,5.137-15.54,13.047q-.265,14.844.008,29.694c.136,7.376,6.178,12.422,14.94,12.651,5.985.156,11.983.03,17.974.03" transform="translate(0 0)"/><path d="M23.653,38.856C23.618,28.831,32.811,21.1,44.745,21.113c11.69.015,20.895,7.685,20.944,17.452.051,10.02-8.982,17.773-20.728,17.792-12.214.02-21.272-7.42-21.307-17.5M58.177,38.7C58.136,32.63,51.96,27.469,44.712,27.45c-7.389-.02-13.6,5.188-13.563,11.375s6.26,11.3,13.716,11.256c7.207-.045,13.353-5.3,13.312-11.376" transform="translate(-3.678 -4.614)"/><path d="M73.41,14.882c2.718-.014,5.1,1.961,5.113,4.239.013,2.243-2.415,4.236-5.133,4.212-2.606-.022-4.888-1.921-4.963-4.13-.078-2.288,2.251-4.307,4.983-4.322" transform="translate(-10.64 -3.252)"/><path d="M296.824,66.725h-58.8a16.194,16.194,0,0,1-3.11-1.293,6.553,6.553,0,0,1-3-5.688q.011-23.886,0-47.772c0-1.71-.079-3.424.031-5.129a7.418,7.418,0,0,1,.7-2.9,7,7,0,0,1,6.732-3.8q6.862.012,13.724,0h42.42a7.067,7.067,0,0,1,6.615,3.683,13.579,13.579,0,0,1,.777,2.09V60.952a3.159,3.159,0,0,0-.135.345,6.58,6.58,0,0,1-2.859,4.145,20.536,20.536,0,0,1-3.108,1.282m-4.595-10.017c.016-.153.032-.236.032-.32,0-6.263.022-12.526-.014-18.789a10.618,10.618,0,0,0-3.528-7.909c-4-3.769-10.36-5.092-15.623-1.092-.741.563-1.457,1.153-2.1,1.666V26.848H260.4V56.7h10.587v-.785c0-5.472.035-10.945-.016-16.416a5.3,5.3,0,0,1,3.29-5.01,4.54,4.54,0,0,1,4.621.32,5.308,5.308,0,0,1,2.751,4.853c-.035,5.43-.012,10.859-.012,16.288v.758ZM253.18,26.86H242.636V56.71H253.18Zm1.089-11.768a6.392,6.392,0,0,0-12.758.077,6.175,6.175,0,0,0,6.464,5.9,6.107,6.107,0,0,0,6.294-5.979" transform="translate(-36.059 -0.031)"/><path d="M302.906,5.885a13.552,13.552,0,0,0-.779-2.09A7.065,7.065,0,0,0,295.513.113h-42.42q-6.862,0-13.725,0a7,7,0,0,0-6.732,3.8,7.411,7.411,0,0,0-.7,2.9c-.111,1.7-.032,3.418-.032,5.129q0,23.886,0,47.772a6.551,6.551,0,0,0,3,5.688,16.186,16.186,0,0,0,3.109,1.293H231.77q0-33.339,0-66.694h71.137Z" transform="translate(-36.039 0)" fill="#fff"/><path d="M308.779,83.73a20.52,20.52,0,0,0,3.107-1.283,6.577,6.577,0,0,0,2.858-4.144,3.328,3.328,0,0,1,.136-.345V83.73Z" transform="translate(-48.013 -17.036)" fill="#fff"/><path d="M297.477,63.984H286.866v-.758c0-5.429-.023-10.859.011-16.288a5.308,5.308,0,0,0-2.751-4.853,4.539,4.539,0,0,0-4.621-.32,5.3,5.3,0,0,0-3.289,5.01c.05,5.472.015,10.945.015,16.416v.785H265.644V34.124h10.594v3.417c.647-.513,1.364-1.1,2.1-1.666,5.264-4,11.618-2.677,15.623,1.092a10.618,10.618,0,0,1,3.528,7.909c.036,6.263.013,12.526.014,18.789,0,.084-.016.166-.032.32" transform="translate(-41.306 -7.307)" fill="#fff"/><rect width="10.544" height="29.851" transform="translate(206.577 26.829)" fill="#fff"/><path d="M256.039,17.607a6.107,6.107,0,0,1-6.294,5.979,6.175,6.175,0,0,1-6.464-5.9,6.392,6.392,0,0,1,12.758-.077" transform="translate(-37.829 -2.547)" fill="#fff"/></g></svg>