<svg xmlns="http://www.w3.org/2000/svg" width="71.026" height="66.584" viewBox="0 0 71.026 66.584"><g transform="translate(-1634.759 -1969.222)"><path d="M296.824,66.725h-58.8a16.194,16.194,0,0,1-3.11-1.293,6.553,6.553,0,0,1-3-5.688q.011-23.886,0-47.772c0-1.71-.079-3.424.031-5.129a7.418,7.418,0,0,1,.7-2.9,7,7,0,0,1,6.732-3.8q6.862.012,13.724,0h42.42a7.067,7.067,0,0,1,6.615,3.683,13.579,13.579,0,0,1,.777,2.09V60.952a3.159,3.159,0,0,0-.135.345,6.58,6.58,0,0,1-2.859,4.145,20.536,20.536,0,0,1-3.108,1.282m-4.595-10.017c.016-.153.032-.236.032-.32,0-6.263.022-12.526-.014-18.789a10.618,10.618,0,0,0-3.528-7.909c-4-3.769-10.36-5.092-15.623-1.092-.741.563-1.457,1.153-2.1,1.666V26.848H260.4V56.7h10.587v-.785c0-5.472.035-10.945-.016-16.416a5.3,5.3,0,0,1,3.29-5.01,4.54,4.54,0,0,1,4.621.32,5.308,5.308,0,0,1,2.751,4.853c-.035,5.43-.012,10.859-.012,16.288v.758ZM253.18,26.86H242.636V56.71H253.18Zm1.089-11.768a6.392,6.392,0,0,0-12.758.077,6.175,6.175,0,0,0,6.464,5.9,6.107,6.107,0,0,0,6.294-5.979" transform="translate(1402.86 1969.081)" fill="#0a2b1e"/><path d="M297.477,63.984H286.866v-.758c0-5.429-.023-10.859.011-16.288a5.308,5.308,0,0,0-2.751-4.853,4.539,4.539,0,0,0-4.621-.32,5.3,5.3,0,0,0-3.289,5.01c.05,5.472.015,10.945.015,16.416v.785H265.644V34.124h10.594v3.417c.647-.513,1.364-1.1,2.1-1.666,5.264-4,11.618-2.677,15.623,1.092a10.618,10.618,0,0,1,3.528,7.909c.036,6.263.013,12.526.014,18.789,0,.084-.016.166-.032.32" transform="translate(1397.692 1961.809)" fill="#fff"/><rect width="11.544" height="29.851" transform="translate(1644.792 1995.943)" fill="#fff"/><path d="M256.443,18.177a6.582,6.582,0,0,1-13.162.084,6.581,6.581,0,0,1,13.162-.084" transform="translate(1400.904 1966.123)" fill="#fff"/></g></svg>