<svg xmlns="http://www.w3.org/2000/svg" width="81.658" height="68.284" viewBox="0 0 81.658 68.284"><g transform="translate(-1429.999 -1862.811)"><path d="M81.508,34.157c0,5.59.392,11.2-.089,16.765-.828,9.587-8.724,16.578-20.14,17-13.576.5-27.23.492-40.8-.112C8.485,67.278.95,60.175.342,48.953A271.633,271.633,0,0,1,.609,17.346C1.218,7.62,9.353.771,20.994.35c13.577-.492,27.221-.46,40.8.059C72.483.819,80.486,7.855,81.356,16.964c.543,5.7.1,11.458.1,17.191l.052,0M40.863,61.894l0-.018c5.822,0,11.647.116,17.464-.026,9.691-.237,15.537-5.04,15.7-13.142q.3-14.628-.006-29.263C73.85,11.506,67.9,6.592,58.406,6.471q-17.46-.224-34.925,0c-9.407.115-15.4,5.137-15.54,13.047q-.265,14.844.008,29.694c.136,7.376,6.178,12.422,14.94,12.651,5.985.156,11.983.03,17.974.03" transform="translate(1429.998 1862.811)" fill="#0a2b1e"/><path d="M23.653,38.856C23.618,28.831,32.811,21.1,44.745,21.113c11.69.015,20.895,7.685,20.944,17.452.051,10.02-8.982,17.773-20.728,17.792-12.214.02-21.272-7.42-21.307-17.5M58.177,38.7C58.136,32.63,51.96,27.469,44.712,27.45c-7.389-.02-13.6,5.188-13.563,11.375s6.26,11.3,13.716,11.256c7.207-.045,13.353-5.3,13.312-11.376" transform="translate(1426.321 1858.197)" fill="#0a2b1e"/><path d="M73.41,14.882c2.718-.014,5.1,1.961,5.113,4.239.013,2.243-2.415,4.236-5.133,4.212-2.606-.022-4.888-1.921-4.963-4.13-.078-2.288,2.251-4.307,4.983-4.322" transform="translate(1419.359 1859.559)" fill="#0a2b1e"/></g></svg>